<svg width="56" height="56" viewBox="0 0 56 56" fill="none" xmlns="http://www.w3.org/2000/svg">
<rect width="56" height="56" rx="10" fill="#B3BEB3"/>
<path d="M11.4969 20.5C11.4969 16.6323 14.6323 13.4969 18.5 13.4969H36.625C40.4927 13.4969 43.6281 16.6323 43.6281 20.5V41.125C43.6281 41.8861 43.0111 42.5031 42.25 42.5031H12.875C12.1139 42.5031 11.4969 41.8861 11.4969 41.125V20.5Z" stroke="#546054" stroke-width="0.99375"/>
<path d="M14.6219 20.5C14.6219 16.6323 17.7573 13.4969 21.625 13.4969H33.5C37.3677 13.4969 40.5031 16.6323 40.5031 20.5V41.125C40.5031 41.8861 39.8861 42.5031 39.125 42.5031H16C15.2389 42.5031 14.6219 41.8861 14.6219 41.125V20.5Z" stroke="#546054" stroke-width="0.99375"/>
<path d="M17.7469 20.5C17.7469 16.6323 20.8823 13.4969 24.75 13.4969H30.375C34.2427 13.4969 37.3781 16.6323 37.3781 20.5V41.125C37.3781 41.8861 36.7611 42.5031 36 42.5031H19.125C18.3639 42.5031 17.7469 41.8861 17.7469 41.125V20.5Z" fill="#546054" stroke="#546054" stroke-width="0.99375"/>
<path d="M23.554 31.1593H25.9079C25.9079 32.5044 26.4963 33.5132 28.0095 33.5132C29.1696 33.5132 29.859 32.7566 29.859 31.6637C29.859 30.4027 29.1864 29.8143 27.7573 29.8143H26.7653V27.9648H27.7573C29.0183 27.9648 29.6068 27.3763 29.6068 26.3675C29.6068 25.5269 29.1024 24.7703 27.8414 24.7703C26.4963 24.7703 26.076 25.695 26.076 26.7038H23.8903C23.8903 24.7703 24.9831 23.0049 27.8414 23.0049C30.6156 23.0049 31.8766 24.5181 31.8766 26.1994C31.8766 28.217 30.2793 28.7214 30.2793 28.7214V28.8055C30.2793 28.8055 32.2128 29.2258 32.2128 31.5797C32.2128 33.5132 30.8678 35.2786 28.0095 35.2786C24.815 35.2786 23.554 33.3451 23.554 31.1593Z" fill="#B3BEB3"/>
</svg>
