<svg width="52" height="48" viewBox="0 0 52 48" fill="none" xmlns="http://www.w3.org/2000/svg">
<path d="M12 0.795H40C46.1884 0.795 51.205 5.81165 51.205 12V45C51.205 46.2178 50.2178 47.205 49 47.205H3C1.78221 47.205 0.795 46.2178 0.795 45V12C0.795 5.81165 5.81165 0.795 12 0.795Z" stroke="#ABB7AB" stroke-width="1.59"/>
<path d="M16.9056 0.795H35.0943C41.2827 0.795 46.2993 5.81165 46.2993 12V45C46.2993 46.2178 45.3121 47.205 44.0943 47.205H7.90564C6.68785 47.205 5.70064 46.2178 5.70064 45V12C5.70064 5.81165 10.7173 0.795 16.9056 0.795Z" stroke="#ABB7AB" stroke-width="1.59"/>
<mask id="path-3-inside-1_7401_2" fill="white">
<path fill-rule="evenodd" clip-rule="evenodd" d="M21.8113 0C15.1839 0 9.81128 5.37258 9.81128 12V45C9.81128 46.6569 11.1544 48 12.8113 48H39.1886C40.8455 48 42.1886 46.6569 42.1886 45V12C42.1886 5.37258 36.8161 0 30.1886 0H21.8113ZM22.9108 29.655H19.2157C19.2157 33.1522 21.1952 36.2458 26.21 36.2458C30.6969 36.2458 32.8084 33.4212 32.8084 30.3276C32.8084 26.5614 29.7731 25.8888 29.7731 25.8888V25.7543C29.7731 25.7543 32.2805 24.9473 32.2805 21.7191C32.2805 19.029 30.301 16.6079 25.9461 16.6079C21.4591 16.6079 19.7435 19.4325 19.7435 22.5262H23.1747C23.1747 20.9121 23.8346 19.4325 25.9461 19.4325C27.9256 19.4325 28.7174 20.6431 28.7174 21.9882C28.7174 23.6022 27.7936 24.5438 25.8141 24.5438H24.2569V27.5029H25.8141C28.0576 27.5029 29.1133 28.4445 29.1133 30.4621C29.1133 32.2106 28.0312 33.4212 26.21 33.4212C23.8346 33.4212 22.9108 31.8071 22.9108 29.655Z"/>
</mask>
<path fill-rule="evenodd" clip-rule="evenodd" d="M21.8113 0C15.1839 0 9.81128 5.37258 9.81128 12V45C9.81128 46.6569 11.1544 48 12.8113 48H39.1886C40.8455 48 42.1886 46.6569 42.1886 45V12C42.1886 5.37258 36.8161 0 30.1886 0H21.8113ZM22.9108 29.655H19.2157C19.2157 33.1522 21.1952 36.2458 26.21 36.2458C30.6969 36.2458 32.8084 33.4212 32.8084 30.3276C32.8084 26.5614 29.7731 25.8888 29.7731 25.8888V25.7543C29.7731 25.7543 32.2805 24.9473 32.2805 21.7191C32.2805 19.029 30.301 16.6079 25.9461 16.6079C21.4591 16.6079 19.7435 19.4325 19.7435 22.5262H23.1747C23.1747 20.9121 23.8346 19.4325 25.9461 19.4325C27.9256 19.4325 28.7174 20.6431 28.7174 21.9882C28.7174 23.6022 27.7936 24.5438 25.8141 24.5438H24.2569V27.5029H25.8141C28.0576 27.5029 29.1133 28.4445 29.1133 30.4621C29.1133 32.2106 28.0312 33.4212 26.21 33.4212C23.8346 33.4212 22.9108 31.8071 22.9108 29.655Z" fill="#ABB7AB"/>
<path d="M19.2157 29.655V28.065H17.6257V29.655H19.2157ZM22.9108 29.655H24.5008V28.065H22.9108V29.655ZM29.7731 25.8888H28.1831V27.1651L29.4292 27.4412L29.7731 25.8888ZM29.7731 25.7543L29.286 24.2408L28.1831 24.5958V25.7543H29.7731ZM19.7435 22.5262H18.1535V24.1162H19.7435V22.5262ZM23.1747 22.5262V24.1162H24.7647V22.5262H23.1747ZM24.2569 24.5438V22.9538H22.6669V24.5438H24.2569ZM24.2569 27.5029H22.6669V29.0929H24.2569V27.5029ZM11.4013 12C11.4013 6.25072 16.062 1.59 21.8113 1.59V-1.59C14.3057 -1.59 8.22128 4.49445 8.22128 12H11.4013ZM11.4013 45V12H8.22128V45H11.4013ZM12.8113 46.41C12.0326 46.41 11.4013 45.7787 11.4013 45H8.22128C8.22128 47.535 10.2763 49.59 12.8113 49.59V46.41ZM39.1886 46.41H12.8113V49.59H39.1886V46.41ZM40.5986 45C40.5986 45.7787 39.9674 46.41 39.1886 46.41V49.59C41.7236 49.59 43.7786 47.535 43.7786 45H40.5986ZM40.5986 12V45H43.7786V12H40.5986ZM30.1886 1.59C35.9379 1.59 40.5986 6.25072 40.5986 12H43.7786C43.7786 4.49445 37.6942 -1.59 30.1886 -1.59V1.59ZM21.8113 1.59H30.1886V-1.59H21.8113V1.59ZM19.2157 31.245H22.9108V28.065H19.2157V31.245ZM26.21 34.6558C24.0421 34.6558 22.7558 33.9983 21.9986 33.1812C21.219 32.3399 20.8057 31.119 20.8057 29.655H17.6257C17.6257 31.6882 18.2021 33.7627 19.666 35.3426C21.1523 36.9465 23.3631 37.8358 26.21 37.8358V34.6558ZM31.2184 30.3276C31.2184 31.5151 30.8165 32.5706 30.0654 33.3246C29.3255 34.0673 28.1081 34.6558 26.21 34.6558V37.8358C28.7988 37.8358 30.8806 37.012 32.3182 35.569C33.7446 34.1372 34.3984 32.2336 34.3984 30.3276H31.2184ZM29.7731 25.8888C29.4292 27.4412 29.4283 27.441 29.4274 27.4408C29.4272 27.4407 29.4263 27.4405 29.4257 27.4404C29.4246 27.4402 29.4236 27.4399 29.4225 27.4397C29.4205 27.4392 29.4186 27.4388 29.4169 27.4384C29.4134 27.4376 29.4106 27.4369 29.4085 27.4364C29.4042 27.4354 29.4024 27.4349 29.4029 27.435C29.404 27.4353 29.4143 27.4381 29.4325 27.4437C29.4691 27.4551 29.5354 27.4775 29.6213 27.5143C29.796 27.5891 30.0326 27.715 30.2667 27.9122C30.6887 28.2675 31.2184 28.9415 31.2184 30.3276H34.3984C34.3984 27.9474 33.4105 26.4021 32.3149 25.4796C31.7902 25.0378 31.268 24.7602 30.8735 24.5912C30.6749 24.5061 30.504 24.4466 30.3746 24.4065C30.3098 24.3864 30.2549 24.371 30.2116 24.3596C30.1899 24.3539 30.171 24.3492 30.1552 24.3453C30.1473 24.3434 30.1402 24.3418 30.1338 24.3403C30.1307 24.3395 30.1277 24.3389 30.1249 24.3382C30.1235 24.3379 30.1221 24.3376 30.1208 24.3373C30.1202 24.3372 30.1193 24.337 30.1189 24.3369C30.118 24.3367 30.1171 24.3365 29.7731 25.8888ZM28.1831 25.7543V25.8888H31.3631V25.7543H28.1831ZM30.6905 21.7191C30.6905 22.8651 30.2664 23.4713 29.9224 23.8035C29.7346 23.9848 29.5472 24.1048 29.4133 24.1767C29.3473 24.2121 29.2979 24.2339 29.2729 24.2442C29.2606 24.2493 29.2547 24.2514 29.2564 24.2508C29.2573 24.2504 29.2601 24.2494 29.265 24.2478C29.2674 24.2469 29.2704 24.2459 29.2739 24.2448C29.2756 24.2442 29.2775 24.2436 29.2795 24.2429C29.2805 24.2426 29.2816 24.2422 29.2827 24.2419C29.2832 24.2417 29.284 24.2414 29.2843 24.2414C29.2851 24.2411 29.286 24.2408 29.7731 25.7543C30.2603 27.2679 30.2612 27.2676 30.2621 27.2673C30.2624 27.2672 30.2633 27.2669 30.2639 27.2667C30.2651 27.2663 30.2664 27.2659 30.2677 27.2655C30.2703 27.2646 30.2731 27.2637 30.2761 27.2627C30.282 27.2608 30.2885 27.2585 30.2957 27.2561C30.3101 27.2512 30.3269 27.2452 30.3462 27.2382C30.3846 27.2242 30.4326 27.2058 30.4889 27.1825C30.601 27.1361 30.7474 27.0696 30.9165 26.9789C31.2528 26.7986 31.6922 26.5151 32.1313 26.0911C33.041 25.2127 33.8705 23.8013 33.8705 21.7191H30.6905ZM25.9461 18.1979C27.8318 18.1979 29.0003 18.7183 29.6789 19.3331C30.351 19.942 30.6905 20.7743 30.6905 21.7191H33.8705C33.8705 19.9739 33.2204 18.2506 31.814 16.9764C30.4141 15.7081 28.4153 15.0179 25.9461 15.0179V18.1979ZM21.3335 22.5262C21.3335 21.2549 21.686 20.1971 22.3407 19.4743C22.9685 18.7811 24.0526 18.1979 25.9461 18.1979V15.0179C23.3526 15.0179 21.3355 15.847 19.9837 17.3396C18.6588 18.8025 18.1535 20.7038 18.1535 22.5262H21.3335ZM23.1747 20.9362H19.7435V24.1162H23.1747V20.9362ZM25.9461 17.8425C24.4758 17.8425 23.274 18.384 22.4968 19.4199C21.7794 20.3759 21.5847 21.5425 21.5847 22.5262H24.7647C24.7647 21.8958 24.8999 21.5156 25.0404 21.3283C25.121 21.2209 25.3049 21.0225 25.9461 21.0225V17.8425ZM30.3074 21.9882C30.3074 21.0162 30.0195 19.9487 29.2291 19.1132C28.4198 18.2579 27.2709 17.8425 25.9461 17.8425V21.0225C26.6008 21.0225 26.8375 21.2125 26.9191 21.2987C27.0194 21.4047 27.1274 21.6151 27.1274 21.9882H30.3074ZM25.8141 26.1338C27.0308 26.1338 28.2042 25.8459 29.0806 25.045C29.9818 24.2215 30.3074 23.0977 30.3074 21.9882H27.1274C27.1274 22.4927 26.9911 22.6467 26.9355 22.6975C26.8552 22.7709 26.5769 22.9538 25.8141 22.9538V26.1338ZM24.2569 26.1338H25.8141V22.9538H24.2569V26.1338ZM25.8469 27.5029V24.5438H22.6669V27.5029H25.8469ZM25.8141 25.9129H24.2569V29.0929H25.8141V25.9129ZM30.7033 30.4621C30.7033 29.1881 30.3647 27.9362 29.3658 27.0415C28.4038 26.1798 27.1164 25.9129 25.8141 25.9129V29.0929C26.7553 29.0929 27.1175 29.2968 27.2442 29.4103C27.334 29.4907 27.5233 29.7185 27.5233 30.4621H30.7033ZM26.21 35.0112C27.486 35.0112 28.6515 34.5774 29.494 33.696C30.3271 32.8243 30.7033 31.6633 30.7033 30.4621H27.5233C27.5233 31.0094 27.3584 31.3279 27.1952 31.4987C27.0413 31.6597 26.7551 31.8312 26.21 31.8312V35.0112ZM21.3208 29.655C21.3208 30.9232 21.5878 32.2681 22.4189 33.3269C23.3019 34.4519 24.6283 35.0112 26.21 35.0112V31.8312C25.4163 31.8312 25.0931 31.5835 24.9203 31.3634C24.6956 31.0771 24.5008 30.5389 24.5008 29.655H21.3208Z" fill="#ABB7AB" mask="url(#path-3-inside-1_7401_2)"/>
</svg>
