<svg width="28" height="28" viewBox="0 0 28 28" fill="none" xmlns="http://www.w3.org/2000/svg">
<path d="M21.8219 17.1427C24.4676 17.945 26.4087 19.4741 27.666 21.7065C28.1224 22.5168 28.1051 23.5154 27.6504 24.3266C27.3732 24.8213 27.0832 25.308 26.78 25.7862C25.6628 27.5488 23.5173 28.3834 21.5049 27.8313C16.8787 26.5622 12.1801 23.861 8.15955 19.8405C4.13897 15.8199 1.43784 11.1213 0.168666 6.49513C-0.383441 4.48271 0.45123 2.33716 2.21377 1.21996C2.69201 0.916825 3.17869 0.6268 3.67335 0.349564C4.48465 -0.105131 5.48321 -0.122421 6.29354 0.33398C8.52592 1.59131 10.055 3.53241 10.8573 6.17807C11.1137 7.02372 10.9285 7.94405 10.3694 8.62835L9.0178 10.2825C8.27901 11.1867 8.2114 12.4717 8.86264 13.4408C10.3887 15.7118 12.2882 17.6113 14.5592 19.1374C15.5283 19.7886 16.8133 19.721 17.7175 18.9822L19.3717 17.6306C20.0559 17.0715 20.9763 16.8863 21.8219 17.1427Z" fill="#ABB7AB"/>
</svg>
