<svg width="16" height="16" viewBox="0 0 16 16" fill="none" xmlns="http://www.w3.org/2000/svg">
<path d="M12.4697 9.79585C13.9815 10.2543 15.0907 11.128 15.8092 12.4037C16.07 12.8667 16.0601 13.4373 15.8003 13.9009C15.6418 14.1836 15.4761 14.4617 15.3029 14.735C14.6645 15.7422 13.4385 16.2191 12.2885 15.9036C9.64499 15.1784 6.96007 13.6349 4.6626 11.3374C2.36513 9.03993 0.821623 6.35501 0.0963806 3.71151C-0.219109 2.56155 0.257846 1.33552 1.26501 0.697121C1.53829 0.5239 1.8164 0.358171 2.09906 0.199751C2.56266 -0.0600746 3.13326 -0.0699549 3.59631 0.190846C4.87196 0.909321 5.74574 2.01852 6.20415 3.53033C6.35068 4.01356 6.24487 4.53946 5.92536 4.93048L5.15303 5.87572C4.73086 6.39239 4.69223 7.12668 5.06437 7.68047C5.93638 8.97816 7.02184 10.0636 8.31953 10.9356C8.87332 11.3078 9.60761 11.2691 10.1243 10.847L11.0695 10.0746C11.4605 9.75514 11.9864 9.64932 12.4697 9.79585Z" fill="#446C46"/>
</svg>
