<svg width="200" height="56" viewBox="0 0 200 56" fill="none" xmlns="http://www.w3.org/2000/svg">
<path d="M137.028 31.3874C137.125 32.1143 137.428 32.7525 137.937 33.3017C138.446 33.851 139.12 34.275 139.96 34.5739C140.809 34.8728 141.778 35.0222 142.868 35.0222C143.943 35.0222 144.88 34.9091 145.679 34.6829C146.479 34.4487 147.093 34.1175 147.521 33.6894C147.957 33.2613 148.175 32.7605 148.175 32.187C148.175 31.7024 148.054 31.3066 147.812 30.9997C147.577 30.6927 147.186 30.4464 146.636 30.2606C146.095 30.0667 145.34 29.9092 144.371 29.7881L140.445 29.2792C138.967 29.0853 137.767 28.7824 136.847 28.3705C135.934 27.9585 135.259 27.4173 134.823 26.7469C134.387 26.0684 134.169 25.2324 134.169 24.2389C134.169 23.1404 134.504 22.1832 135.175 21.3674C135.845 20.5435 136.794 19.9094 138.022 19.4652C139.258 19.0128 140.696 18.7867 142.335 18.7867C143.951 18.7867 145.393 19.029 146.661 19.5136C147.937 19.9983 148.947 20.6808 149.69 21.5612C150.433 22.4336 150.841 23.4392 150.913 24.5781H147.666C147.586 23.94 147.315 23.3827 146.855 22.9061C146.394 22.4296 145.768 22.062 144.977 21.8036C144.193 21.537 143.288 21.4037 142.263 21.4037C141.277 21.4037 140.413 21.5128 139.67 21.7309C138.935 21.949 138.365 22.264 137.961 22.6759C137.566 23.0879 137.368 23.5685 137.368 24.1177C137.368 24.562 137.481 24.9295 137.707 25.2203C137.933 25.503 138.301 25.7413 138.809 25.9351C139.326 26.1209 140.025 26.2744 140.906 26.3956L144.88 26.9529C146.535 27.1791 147.828 27.486 148.757 27.8737C149.694 28.2534 150.364 28.7582 150.768 29.3882C151.172 30.0183 151.374 30.8381 151.374 31.8478C151.374 33.0029 151.018 34.0206 150.308 34.901C149.597 35.7734 148.595 36.4479 147.303 36.9244C146.01 37.401 144.516 37.6393 142.82 37.6393C141.091 37.6393 139.553 37.3808 138.204 36.8638C136.863 36.3388 135.805 35.6038 135.029 34.6587C134.262 33.7137 133.846 32.6232 133.781 31.3874H137.028ZM154.348 37.3V19.1259H157.547V37.3H154.348ZM169.828 19.1259C171.871 19.1259 173.68 19.5055 175.256 20.2648C176.831 21.0241 178.05 22.0903 178.915 23.4635C179.787 24.8366 180.223 26.4198 180.223 28.213C180.223 30.0061 179.787 31.5893 178.915 32.9625C178.05 34.3356 176.831 35.4018 175.256 36.1611C173.68 36.9204 171.871 37.3 169.828 37.3H161.613V19.1259H169.828ZM170.046 34.4891C171.419 34.4891 172.63 34.2306 173.68 33.7137C174.731 33.1886 175.542 32.4536 176.116 31.5085C176.689 30.5554 176.976 29.4569 176.976 28.213C176.976 26.969 176.689 25.8746 176.116 24.9295C175.542 23.9764 174.731 23.2413 173.68 22.7244C172.63 22.1994 171.419 21.9368 170.046 21.9368H164.811V34.4891H170.046ZM186.867 29.5457L186.067 34.5376H198.365V37.3H182.517L183.971 28.213L182.517 19.1259H198.244V21.8884H186.067L186.867 26.8802H197.662V29.5457H186.867Z" fill="#ABB7AB"/>
<path d="M5.2483 11.3618L45.5696 3.66417C47.7565 3.24667 49.7831 4.92301 49.7831 7.14942V49.0166C49.7831 51.2097 47.8135 52.8776 45.6503 52.5163L5.32905 45.7808C3.61875 45.4951 2.36546 44.0151 2.36546 42.2811V14.847C2.36546 13.144 3.57546 11.6812 5.2483 11.3618Z" stroke="#ABB7AB" stroke-width="4.73093"/>
<path d="M112.594 14.8472C112.594 12.0088 110.577 9.57071 107.789 9.03845L67.4676 1.34082C63.8227 0.644986 60.445 3.43889 60.445 7.14957V49.0167C60.445 52.6719 63.7278 55.4518 67.333 54.8496L107.654 48.1141C110.505 47.638 112.594 45.1713 112.594 42.2813V14.8472Z" fill="#ABB7AB"/>
</svg>
