<svg width="56" height="56" viewBox="0 0 56 56" fill="none" xmlns="http://www.w3.org/2000/svg">
<rect width="56" height="56" rx="10" fill="#B3BEB3"/>
<path d="M29.3914 28.9502C29.8505 28.7737 30.0977 28.2793 29.9564 27.7849V27.7496C29.6739 26.9021 29.462 26.1252 29.4973 25.419C29.5327 24.7127 29.7798 24.0065 30.1683 23.1589C30.3448 22.7352 30.5567 22.2761 30.7333 21.8171C30.9452 21.2874 31.1217 20.6517 31.157 20.0161C31.1924 19.3805 31.0864 18.7448 30.8745 18.1798C30.7686 17.8973 30.6273 17.6148 30.4861 17.3676C30.3095 17.0851 30.1683 16.8733 29.9211 16.5908C29.7092 16.3789 29.3914 16.2729 29.1089 16.3436C28.6498 16.4495 28.332 16.9086 28.438 17.3676L28.5086 17.7208C28.5439 17.8267 28.6145 18.0386 28.6498 18.2151C28.6851 18.3917 28.7558 18.5683 28.7558 18.7448C28.7911 19.098 28.7911 19.4511 28.7205 19.8042C28.6498 20.1574 28.5439 20.4399 28.3673 20.8283L27.767 22.1702C27.5551 22.6293 27.3786 23.1589 27.2373 23.7239C27.0961 24.289 27.0254 24.9246 27.0961 25.5249C27.202 26.7962 27.767 27.8909 28.4733 28.7031C28.6498 28.9502 29.0383 29.0915 29.3914 28.9502Z" fill="black" fill-opacity="0.61"/>
<path d="M36.4893 17.3322C36.3127 17.0497 36.1715 16.8379 35.9243 16.5554C35.7124 16.3435 35.4299 16.2375 35.1121 16.3082C34.653 16.4141 34.3352 16.8732 34.4411 17.3322L34.5118 17.6854C34.5471 17.7913 34.6177 18.0032 34.653 18.1797C34.6883 18.3563 34.7589 18.5329 34.7589 18.7448C34.7943 19.0979 34.7943 19.451 34.7236 19.8041C34.653 20.1573 34.5471 20.4398 34.3705 20.8282L33.7702 22.1701C33.5583 22.6292 33.3817 23.1589 33.2405 23.7239C33.0992 24.2889 33.0286 24.9245 33.0992 25.5248C33.1699 26.7961 33.7702 27.8908 34.4764 28.703C34.7236 28.9855 35.1121 29.0914 35.4652 28.9855C35.9243 28.8089 36.1715 28.3145 36.0302 27.8202L35.9949 27.7848C35.7124 26.9373 35.5005 26.1604 35.5358 25.4542C35.5711 24.7479 35.8183 24.0417 36.2068 23.1942C36.3833 22.7704 36.5952 22.3113 36.7718 21.8523C36.9837 21.3226 37.1602 20.687 37.1955 20.0513C37.2308 19.4157 37.1249 18.7801 36.913 18.2151C36.7718 17.8972 36.6658 17.6147 36.4893 17.3322Z" fill="black" fill-opacity="0.61"/>
<path d="M42.9517 18.1798C42.8457 17.8973 42.7045 17.6148 42.5632 17.3676C42.3867 17.0851 42.2454 16.8733 41.9982 16.5908C41.7864 16.3789 41.4685 16.2729 41.186 16.3436C40.727 16.4495 40.4092 16.9086 40.5151 17.3676L40.5857 17.7208C40.621 17.8267 40.6917 18.0386 40.727 18.2151C40.7623 18.3917 40.7976 18.5683 40.8329 18.7448C40.8682 19.098 40.8682 19.4511 40.7976 19.8042C40.727 20.1574 40.621 20.4399 40.4445 20.8283L39.8442 22.1702C39.6323 22.6293 39.4557 23.1589 39.3145 23.724C39.1732 24.289 39.1026 24.9246 39.1732 25.5249C39.2438 26.7962 39.8442 27.8909 40.5504 28.7031C40.7976 28.9856 41.186 29.0915 41.5392 28.9856C41.9982 28.809 42.2454 28.3146 42.1042 27.8202V27.7849C41.8217 26.9374 41.6098 26.1605 41.6451 25.4543C41.6804 24.748 41.9276 24.0418 42.2807 23.1943C42.4573 22.7705 42.6692 22.3114 42.8458 21.8524C43.0576 21.3227 43.2342 20.687 43.2342 20.0514C43.2342 19.3805 43.1283 18.7448 42.9517 18.1798Z" fill="black" fill-opacity="0.61"/>
<path d="M19.0801 20.6163C21.4595 20.6163 23.3883 18.6875 23.3883 16.3082C23.3883 13.9288 21.4595 12 19.0801 12C16.7008 12 14.772 13.9288 14.772 16.3082C14.772 18.6875 16.7008 20.6163 19.0801 20.6163Z" fill="black" fill-opacity="0.61"/>
<path d="M30.9453 34.0351C30.6274 33.0111 29.674 32.3401 28.6146 32.3401H23.5649L23.1411 25.5601C23.1411 25.3835 23.1058 25.2069 23.0352 25.0304C22.4349 22.9822 20.3867 21.711 18.3033 22.0641C17.032 22.276 15.9373 23.0175 15.3017 24.1122C14.7013 25.101 14.5601 26.3016 14.8779 27.3963L15.8667 35.1298C16.0079 36.3658 17.0673 37.2839 18.3033 37.2839H26.849L28.9324 43.6049C29.2855 44.629 30.239 45.2999 31.2631 45.2999C31.5103 45.2999 31.7928 45.2646 32.0399 45.1587C33.3112 44.7349 34.0175 43.3577 33.5937 42.0511L30.9453 34.0351Z" fill="black" fill-opacity="0.61"/>
</svg>
