<svg width="28" height="28" viewBox="0 0 28 28" fill="none" xmlns="http://www.w3.org/2000/svg">
<path d="M14 0C6.27407 0 0 6.27407 0 14C0 16.9037 0.881481 19.7556 2.59259 22.1407C2.6963 22.2963 2.6963 22.5037 2.64444 22.6593L0.466667 27.5333L5.39259 25.4593C5.44444 25.4074 5.54815 25.4074 5.65185 25.4074C5.75556 25.4074 5.85926 25.4593 5.96296 25.5111C8.34815 27.1185 11.0963 28 14 28C21.7259 28 28 21.7259 28 14C28 6.27407 21.7259 0 14 0ZM21.6222 20.1185C21.4148 20.4815 21.2074 20.7926 20.8963 21.0519C20.4296 21.5185 19.8593 21.8815 19.1852 22.037H19.1333C17.6815 21.6222 16.0222 20.7926 14.3111 19.5481C13.2222 18.7704 12.1852 17.837 11.1481 16.8C10.1111 15.763 9.22963 14.7259 8.4 13.637C7.15556 11.9259 6.32593 10.2667 5.91111 8.81481V8.76296C6.11852 8.14074 6.42963 7.51852 6.8963 7.05185C7.15555 6.79259 7.51852 6.53333 7.82963 6.32593C8.4 6.01482 9.02222 5.85926 9.64444 5.85926C9.8 5.85926 9.9037 5.85926 10.0593 5.85926C10.1111 5.85926 10.163 5.91111 10.163 5.96296C10.3185 6.32593 10.4222 6.63704 10.5778 6.8963C10.9407 7.82963 11.2 8.55556 12.3407 9.85185C12.3926 9.9037 12.3926 9.95556 12.3407 10.0074C12.1333 10.5778 11.8222 11.0963 11.4074 11.5111C11.3037 11.6148 11.2519 11.6667 11.1481 11.7185C10.8889 11.9259 10.7333 12.237 10.7333 12.5481C10.7333 12.8593 10.837 13.1704 11.0444 13.4296C11.2519 13.637 12.5481 14.9333 12.7037 15.1407C12.9111 15.3481 14.1556 16.5926 14.4148 16.8C14.6222 17.0074 14.9852 17.1111 15.2963 17.1111C15.6074 17.1111 15.9185 16.9556 16.1259 16.6963C16.1778 16.5926 16.2815 16.5407 16.3852 16.437C16.8 16.0222 17.3185 15.7111 17.8889 15.5037C17.9407 15.5037 17.9926 15.5037 18.0444 15.5037C19.3407 16.5926 20.0667 16.9037 21 17.2667C21.2593 17.3704 21.5704 17.4741 21.9333 17.6815C21.9852 17.6815 22.037 17.7333 22.037 17.7852C22.1407 18.6148 21.9852 19.4444 21.6222 20.1185Z" fill="#ABB7AB"/>
</svg>
